<?xml version="1.0" standalone="no"?>
<!DOCTYPE svg PUBLIC "-//W3C//DTD SVG 20010904//EN"
 "http://www.w3.org/TR/2001/REC-SVG-20010904/DTD/svg10.dtd">
<svg version="1.0" xmlns="http://www.w3.org/2000/svg"
 width="180.000000pt" height="180.000000pt" viewBox="0 0 180.000000 180.000000"
 preserveAspectRatio="xMidYMid meet">
<metadata>
Created by potrace 1.14, written by Peter Selinger 2001-2017
</metadata>
<g transform="translate(0.000000,180.000000) scale(0.100000,-0.100000)"
fill="#000000" stroke="none">
<path d="M510 1615 l-125 -125 88 -87 87 -88 41 41 41 41 -41 42 c-23 23 -41
45 -41 49 0 9 73 82 82 82 8 0 168 -160 168 -168 0 -10 -413 -422 -423 -422
-10 0 -167 158 -167 168 0 4 18 26 40 47 l40 39 45 -44 45 -44 43 42 42 42
-88 88 -87 87 -125 -125 c-68 -69 -124 -128 -125 -131 0 -3 57 -63 127 -133
l126 -128 -129 -129 -129 -129 128 -127 127 -128 87 88 88 87 -41 41 -41 40
-46 -45 -47 -45 -44 44 -44 43 67 69 c37 37 77 77 89 87 l22 19 210 -210 c115
-116 210 -213 210 -216 0 -9 -158 -167 -168 -167 -10 0 -47 33 -71 63 -13 16
-10 23 30 63 l43 44 -42 43 -42 42 -87 -88 -88 -87 125 -125 c69 -69 128 -125
131 -125 3 0 63 57 133 126 l127 126 125 -126 c70 -69 129 -126 133 -126 3 0
62 56 131 125 l125 125 -88 87 -87 88 -42 -42 -42 -43 42 -43 c23 -23 42 -45
42 -49 0 -3 -18 -24 -40 -46 l-41 -40 -84 83 c-47 46 -85 87 -85 91 0 4 95
101 210 217 210 209 210 210 232 191 11 -11 51 -50 88 -87 l68 -69 -21 -20
c-12 -11 -32 -31 -44 -44 l-23 -25 -46 47 -46 47 -41 -42 -42 -41 88 -87 87
-88 127 128 128 127 -130 130 -129 129 127 127 c70 69 127 128 127 131 0 3
-57 62 -126 131 l-125 125 -85 -84 c-46 -46 -84 -87 -84 -91 0 -7 33 -42 64
-67 15 -13 22 -10 61 29 l45 44 40 -39 c22 -21 40 -43 40 -47 0 -10 -158 -168
-168 -168 -10 0 -422 413 -422 423 0 4 38 45 84 91 l84 84 41 -42 c23 -23 41
-45 41 -48 0 -4 -18 -25 -40 -48 -22 -23 -40 -43 -40 -45 0 -6 72 -75 79 -75
3 0 44 38 91 85 l84 84 -128 127 -128 127 -129 -129 -129 -129 -128 128 c-70
70 -130 127 -132 127 -3 0 -61 -56 -130 -125z m621 -528 l198 -198 -209 -209
c-115 -116 -214 -210 -220 -210 -6 0 -104 94 -220 209 l-209 210 212 214 c201
203 213 213 231 198 10 -9 108 -105 217 -214z"/>
<path d="M785 1010 l-110 -110 113 -113 112 -112 112 112 113 113 -110 110
c-60 60 -112 110 -115 110 -3 0 -55 -50 -115 -110z m162 -64 l42 -44 -46 -47
-46 -47 -44 47 -45 47 44 43 c23 24 45 44 48 44 3 1 24 -19 47 -43z"/>
</g>
</svg>
