<svg width="33" height="33" viewBox="0 0 33 33" fill="none" xmlns="http://www.w3.org/2000/svg">
<path fill-rule="evenodd" clip-rule="evenodd" d="M8.02983 13.5515C10.4921 18.9119 14.867 23.1598 20.2976 25.4632L20.3141 25.47L21.3646 25.9375C22.0134 26.2269 22.7421 26.2841 23.4282 26.0996C24.1143 25.915 24.7159 25.5 25.1321 24.9242L26.8838 22.5C26.9353 22.4287 26.9575 22.3402 26.9457 22.253C26.9339 22.1658 26.8892 22.0864 26.8206 22.0312L23.7626 19.563C23.7265 19.5339 23.6849 19.5124 23.6403 19.4998C23.5957 19.4872 23.5489 19.4838 23.503 19.4897C23.457 19.4956 23.4127 19.5107 23.3727 19.5342C23.3327 19.5577 23.2979 19.589 23.2703 19.6263L22.0796 21.2323C21.9393 21.4218 21.7383 21.5575 21.5101 21.6168C21.282 21.6761 21.0404 21.6554 20.8256 21.5582C16.757 19.7151 13.4974 16.4555 11.6543 12.3869C11.5571 12.1721 11.5365 11.9305 11.5957 11.7024C11.655 11.4742 11.7907 11.2732 11.9802 11.1329L13.5848 9.9408C13.6221 9.91324 13.6534 9.87842 13.6769 9.83844C13.7004 9.79847 13.7156 9.75415 13.7215 9.70816C13.7274 9.66218 13.7239 9.61547 13.7113 9.57086C13.6987 9.52624 13.6772 9.48464 13.6481 9.44855L11.1813 6.39055C11.1261 6.32198 11.0467 6.27719 10.9595 6.26542C10.8723 6.25366 10.7838 6.2758 10.7125 6.3273L8.27458 8.0873C7.69488 8.50544 7.27785 9.11142 7.09437 9.80224C6.91088 10.4931 6.97226 11.2261 7.26808 11.8768L8.02983 13.5502V13.5515ZM19.4836 27.3579C13.5836 24.8527 8.83091 20.2358 6.15571 14.4109L6.15295 14.4082L5.39121 12.7307C4.89816 11.6464 4.7957 10.4249 5.10125 9.2736C5.4068 8.12235 6.1015 7.11238 7.06733 6.4153L9.50521 4.6553C10.0045 4.29494 10.623 4.13971 11.2333 4.22156C11.8436 4.30341 12.3992 4.61611 12.786 5.0953L15.2541 8.15467C15.4578 8.40708 15.6083 8.69807 15.6967 9.01014C15.785 9.32221 15.8094 9.64893 15.7683 9.97065C15.7272 10.2924 15.6215 10.6025 15.4575 10.8823C15.2935 11.1621 15.0747 11.4059 14.8141 11.599L13.8928 12.281C15.4504 15.301 17.9101 17.7607 20.9301 19.3183L21.6135 18.397C21.8066 18.1367 22.0503 17.918 22.33 17.7541C22.6097 17.5903 22.9197 17.4846 23.2412 17.4435C23.5628 17.4024 23.8893 17.4267 24.2013 17.515C24.5132 17.6032 24.8041 17.7536 25.0565 17.957L28.1158 20.4252C28.5954 20.8119 28.9084 21.3679 28.9902 21.9785C29.0721 22.5891 28.9166 23.2079 28.5558 23.7073L26.8041 26.1328C26.1107 27.0925 25.1081 27.7842 23.9649 28.092C22.8216 28.3997 21.6073 28.3046 20.5258 27.8227L19.4836 27.3579Z" fill="#951A1A"/>
</svg>
