<svg width="33" height="33" viewBox="0 0 33 33" fill="none" xmlns="http://www.w3.org/2000/svg">
<path d="M17 4.41992C13.5522 4.41992 10.2456 5.73688 7.80761 8.08109C5.36964 10.4253 4 13.6047 4 16.9199C4 20.2351 5.36964 23.4146 7.80761 25.7588C10.2456 28.103 13.5522 29.4199 17 29.4199C20.4478 29.4199 23.7544 28.103 26.1924 25.7588C28.6304 23.4146 30 20.2351 30 16.9199C30 13.6047 28.6304 10.4253 26.1924 8.08109C23.7544 5.73688 20.4478 4.41992 17 4.41992ZM5.60333 17.8644H9.22889C9.28667 19.1283 9.47011 20.3838 9.77778 21.6144H6.65778C6.07596 20.435 5.71883 19.1649 5.60333 17.8644ZM17.9822 10.3644V6.0727C19.3742 6.58134 20.518 7.57218 21.1889 8.85048C21.485 9.33242 21.7464 9.83381 21.9689 10.3505L17.9822 10.3644ZM22.6333 12.2394C22.9684 13.4658 23.1678 14.7227 23.2256 15.9894H17.9822V12.2394H22.6333ZM16.0178 6.0727V10.3644H12.0311C12.2539 9.84728 12.5146 9.34602 12.8111 8.86437C13.4791 7.58083 14.6233 6.58473 16.0178 6.0727ZM16.0178 12.2394V15.9894H10.7889C10.8467 14.7227 11.046 13.4658 11.3811 12.2394H16.0178ZM9.22889 15.9755H5.60333C5.71883 14.6749 6.07596 13.4048 6.65778 12.2255H9.77778C9.46952 13.4555 9.2857 14.7114 9.22889 15.9755ZM10.7889 17.8644H16.0178V21.6144H11.3811C11.0461 20.3881 10.8475 19.131 10.7889 17.8644ZM16.0322 23.4199V27.7116C14.6402 27.2029 13.4964 26.2121 12.8256 24.9338C12.529 24.4522 12.2684 23.9509 12.0456 23.4338L16.0322 23.4199ZM17.9822 27.7116V23.4894H21.9689C21.7461 24.0065 21.4854 24.5077 21.1889 24.9894C20.518 26.2677 19.3742 27.2585 17.9822 27.7671V27.7116ZM17.9822 21.5449V17.7949H23.2111C23.1525 19.0616 22.9539 20.3186 22.6189 21.5449H17.9822ZM24.7856 17.7949H28.4111C28.2956 19.0955 27.9385 20.3656 27.3567 21.5449H24.2222C24.5256 20.3366 24.709 19.1046 24.7711 17.8644L24.7856 17.7949ZM24.7856 15.9199C24.7194 14.6787 24.5308 13.4463 24.2222 12.2394H27.3422C27.9243 13.4199 28.2811 14.6894 28.3967 15.9894L24.7856 15.9199ZM26.23 10.3644H23.6444C23.1766 9.10089 22.4985 7.91885 21.6367 6.86437C23.4341 7.64017 24.9954 8.84499 26.1722 10.3644H26.23ZM12.3633 6.86437C11.5015 7.91885 10.8234 9.10089 10.3556 10.3644H7.82778C9.0046 8.84499 10.5659 7.64017 12.3633 6.86437ZM7.81333 23.531H10.3556C10.8234 24.7945 11.5015 25.9766 12.3633 27.031C10.5609 26.2436 8.99915 25.024 7.82778 23.4894L7.81333 23.531ZM21.6222 27.031C22.4841 25.9766 23.1622 24.7945 23.63 23.531H26.1722C24.9882 25.0301 23.4275 26.2153 21.6367 26.9755L21.6222 27.031Z" fill="#951A1A"/>
</svg>
