<svg width="33" height="33" viewBox="0 0 33 33" fill="none" xmlns="http://www.w3.org/2000/svg">
<path d="M16.5 8.25C15.4802 8.25 14.4833 8.55241 13.6353 9.11899C12.7874 9.68556 12.1265 10.4909 11.7362 11.433C11.346 12.3752 11.2439 13.412 11.4428 14.4122C11.6418 15.4124 12.1329 16.3312 12.854 17.0523C13.5751 17.7734 14.4939 18.2645 15.4941 18.4634C16.4943 18.6624 17.531 18.5603 18.4732 18.17C19.4154 17.7797 20.2207 17.1188 20.7873 16.2709C21.3538 15.423 21.6562 14.4261 21.6562 13.4062C21.6562 12.0387 21.113 10.7272 20.146 9.76023C19.179 8.79325 17.8675 8.25 16.5 8.25ZM16.5 16.5C15.8881 16.5 15.29 16.3186 14.7812 15.9786C14.2724 15.6387 13.8759 15.1555 13.6417 14.5902C13.4076 14.0249 13.3463 13.4028 13.4657 12.8027C13.5851 12.2026 13.8797 11.6513 14.3124 11.2186C14.7451 10.786 15.2963 10.4913 15.8964 10.3719C16.4966 10.2526 17.1186 10.3138 17.6839 10.548C18.2492 10.7822 18.7324 11.1787 19.0724 11.6875C19.4123 12.1962 19.5938 12.7944 19.5938 13.4062C19.5938 14.2268 19.2678 15.0137 18.6876 15.5939C18.1074 16.1741 17.3205 16.5 16.5 16.5ZM16.5 2.0625C13.4925 2.06591 10.6092 3.26215 8.48253 5.38878C6.3559 7.5154 5.15966 10.3987 5.15625 13.4062C5.15625 17.4539 7.02668 21.7439 10.5703 25.8135C12.1626 27.6524 13.9547 29.3083 15.9135 30.7506C16.0869 30.8721 16.2934 30.9372 16.5052 30.9372C16.7169 30.9372 16.9234 30.8721 17.0968 30.7506C19.052 29.3077 20.8406 27.6518 22.4297 25.8135C25.9682 21.7439 27.8438 17.4539 27.8438 13.4062C27.8403 10.3987 26.6441 7.5154 24.5175 5.38878C22.3908 3.26215 19.5075 2.06591 16.5 2.0625ZM16.5 28.6172C14.3692 26.9414 7.21875 20.7861 7.21875 13.4062C7.21875 10.9447 8.19659 8.58399 9.93716 6.84341C11.6777 5.10284 14.0385 4.125 16.5 4.125C18.9615 4.125 21.3223 5.10284 23.0628 6.84341C24.8034 8.58399 25.7812 10.9447 25.7812 13.4062C25.7812 20.7836 18.6308 26.9414 16.5 28.6172Z" fill="#951A1A"/>
</svg>
