<svg xmlns="http://www.w3.org/2000/svg" xmlns:xlink="http://www.w3.org/1999/xlink"><symbol id="arrow" viewBox="0 0 23 22"><g fill="none">
<path d="M11.375 20.625L21 11M21 11L11.375 1.375M21 11L1.75 11" stroke-width="2.75" stroke-linecap="round" stroke-linejoin="round"/>
</g></symbol><symbol id="enterprise-arrow" viewBox="0 0 38 93"><g fill="none">
<path d="M1.92864 1.09132C0.824775 1.13063 -0.0382243 2.05736 0.00108251 3.16123L0.641605 21.1498C0.680912 22.2537 1.60764 23.1167 2.71151 23.0774C3.81538 23.0381 4.67838 22.1114 4.63907 21.0075L4.06972 5.01762L20.0596 4.44827C21.1635 4.40896 22.0265 3.48224 21.9871 2.37836C21.9478 1.2745 21.0211 0.411494 19.9172 0.450799L1.92864 1.09132ZM37.2294 92.0717C37.1443 82.141 35.3573 65.7988 30.2865 48.8444C25.2215 31.9093 16.8187 14.157 3.36281 1.62642L0.636821 4.5537C13.3634 16.4051 21.4918 33.3987 26.4542 49.9906C31.4109 66.5634 33.1475 82.5296 33.2296 92.106L37.2294 92.0717Z" fill="white"/>
</g></symbol><symbol id="icon-close" viewBox="0 0 24 24"><g fill="none">
<path fill-rule="evenodd" clip-rule="evenodd" d="M18.7071 5.29289C19.0976 5.68342 19.0976 6.31658 18.7071 6.70711L6.70711 18.7071C6.31658 19.0976 5.68342 19.0976 5.29289 18.7071C4.90237 18.3166 4.90237 17.6834 5.29289 17.2929L17.2929 5.29289C17.6834 4.90237 18.3166 4.90237 18.7071 5.29289Z" fill="currentColor"/>
<path fill-rule="evenodd" clip-rule="evenodd" d="M5.29289 5.29289C5.68342 4.90237 6.31658 4.90237 6.70711 5.29289L18.7071 17.2929C19.0976 17.6834 19.0976 18.3166 18.7071 18.7071C18.3166 19.0976 17.6834 19.0976 17.2929 18.7071L5.29289 6.70711C4.90237 6.31658 4.90237 5.68342 5.29289 5.29289Z" fill="currentColor"/>
</g></symbol><symbol id="mail" viewBox="0 0 33 33"><g fill="none">
<path fill-rule="evenodd" clip-rule="evenodd" d="M4 8.76992L4.89286 7.91992H28.1071L29 8.76992V24.0699L28.1071 24.9199H4.89286L4 24.0699V8.76992ZM5.78571 10.5294V23.2199H27.2143V10.5311L17.0536 17.9499H15.9643L5.78571 10.5294ZM25.4821 9.61992H7.51786L16.5 16.1972L25.4821 9.61992Z" fill="#951A1A"/>
</g></symbol><symbol id="map" viewBox="0 0 33 33"><g fill="none">
<path d="M16.5 8.25C15.4802 8.25 14.4833 8.55241 13.6353 9.11899C12.7874 9.68556 12.1265 10.4909 11.7362 11.433C11.346 12.3752 11.2439 13.412 11.4428 14.4122C11.6418 15.4124 12.1329 16.3312 12.854 17.0523C13.5751 17.7734 14.4939 18.2645 15.4941 18.4634C16.4943 18.6624 17.531 18.5603 18.4732 18.17C19.4154 17.7797 20.2207 17.1188 20.7873 16.2709C21.3538 15.423 21.6562 14.4261 21.6562 13.4062C21.6562 12.0387 21.113 10.7272 20.146 9.76023C19.179 8.79325 17.8675 8.25 16.5 8.25ZM16.5 16.5C15.8881 16.5 15.29 16.3186 14.7812 15.9786C14.2724 15.6387 13.8759 15.1555 13.6417 14.5902C13.4076 14.0249 13.3463 13.4028 13.4657 12.8027C13.5851 12.2026 13.8797 11.6513 14.3124 11.2186C14.7451 10.786 15.2963 10.4913 15.8964 10.3719C16.4966 10.2526 17.1186 10.3138 17.6839 10.548C18.2492 10.7822 18.7324 11.1787 19.0724 11.6875C19.4123 12.1962 19.5938 12.7944 19.5938 13.4062C19.5938 14.2268 19.2678 15.0137 18.6876 15.5939C18.1074 16.1741 17.3205 16.5 16.5 16.5ZM16.5 2.0625C13.4925 2.06591 10.6092 3.26215 8.48253 5.38878C6.3559 7.5154 5.15966 10.3987 5.15625 13.4062C5.15625 17.4539 7.02668 21.7439 10.5703 25.8135C12.1626 27.6524 13.9547 29.3083 15.9135 30.7506C16.0869 30.8721 16.2934 30.9372 16.5052 30.9372C16.7169 30.9372 16.9234 30.8721 17.0968 30.7506C19.052 29.3077 20.8406 27.6518 22.4297 25.8135C25.9682 21.7439 27.8438 17.4539 27.8438 13.4062C27.8403 10.3987 26.6441 7.5154 24.5175 5.38878C22.3908 3.26215 19.5075 2.06591 16.5 2.0625ZM16.5 28.6172C14.3692 26.9414 7.21875 20.7861 7.21875 13.4062C7.21875 10.9447 8.19659 8.58399 9.93716 6.84341C11.6777 5.10284 14.0385 4.125 16.5 4.125C18.9615 4.125 21.3223 5.10284 23.0628 6.84341C24.8034 8.58399 25.7812 10.9447 25.7812 13.4062C25.7812 20.7836 18.6308 26.9414 16.5 28.6172Z" fill="#951A1A"/>
</g></symbol><symbol id="phone" viewBox="0 0 33 33"><g fill="none">
<path fill-rule="evenodd" clip-rule="evenodd" d="M8.02983 13.5515C10.4921 18.9119 14.867 23.1598 20.2976 25.4632L20.3141 25.47L21.3646 25.9375C22.0134 26.2269 22.7421 26.2841 23.4282 26.0996C24.1143 25.915 24.7159 25.5 25.1321 24.9242L26.8838 22.5C26.9353 22.4287 26.9575 22.3402 26.9457 22.253C26.9339 22.1658 26.8892 22.0864 26.8206 22.0312L23.7626 19.563C23.7265 19.5339 23.6849 19.5124 23.6403 19.4998C23.5957 19.4872 23.5489 19.4838 23.503 19.4897C23.457 19.4956 23.4127 19.5107 23.3727 19.5342C23.3327 19.5577 23.2979 19.589 23.2703 19.6263L22.0796 21.2323C21.9393 21.4218 21.7383 21.5575 21.5101 21.6168C21.282 21.6761 21.0404 21.6554 20.8256 21.5582C16.757 19.7151 13.4974 16.4555 11.6543 12.3869C11.5571 12.1721 11.5365 11.9305 11.5957 11.7024C11.655 11.4742 11.7907 11.2732 11.9802 11.1329L13.5848 9.9408C13.6221 9.91324 13.6534 9.87842 13.6769 9.83844C13.7004 9.79847 13.7156 9.75415 13.7215 9.70816C13.7274 9.66218 13.7239 9.61547 13.7113 9.57086C13.6987 9.52624 13.6772 9.48464 13.6481 9.44855L11.1813 6.39055C11.1261 6.32198 11.0467 6.27719 10.9595 6.26542C10.8723 6.25366 10.7838 6.2758 10.7125 6.3273L8.27458 8.0873C7.69488 8.50544 7.27785 9.11142 7.09437 9.80224C6.91088 10.4931 6.97226 11.2261 7.26808 11.8768L8.02983 13.5502V13.5515ZM19.4836 27.3579C13.5836 24.8527 8.83091 20.2358 6.15571 14.4109L6.15295 14.4082L5.39121 12.7307C4.89816 11.6464 4.7957 10.4249 5.10125 9.2736C5.4068 8.12235 6.1015 7.11238 7.06733 6.4153L9.50521 4.6553C10.0045 4.29494 10.623 4.13971 11.2333 4.22156C11.8436 4.30341 12.3992 4.61611 12.786 5.0953L15.2541 8.15467C15.4578 8.40708 15.6083 8.69807 15.6967 9.01014C15.785 9.32221 15.8094 9.64893 15.7683 9.97065C15.7272 10.2924 15.6215 10.6025 15.4575 10.8823C15.2935 11.1621 15.0747 11.4059 14.8141 11.599L13.8928 12.281C15.4504 15.301 17.9101 17.7607 20.9301 19.3183L21.6135 18.397C21.8066 18.1367 22.0503 17.918 22.33 17.7541C22.6097 17.5903 22.9197 17.4846 23.2412 17.4435C23.5628 17.4024 23.8893 17.4267 24.2013 17.515C24.5132 17.6032 24.8041 17.7536 25.0565 17.957L28.1158 20.4252C28.5954 20.8119 28.9084 21.3679 28.9902 21.9785C29.0721 22.5891 28.9166 23.2079 28.5558 23.7073L26.8041 26.1328C26.1107 27.0925 25.1081 27.7842 23.9649 28.092C22.8216 28.3997 21.6073 28.3046 20.5258 27.8227L19.4836 27.3579Z" fill="#951A1A"/>
</g></symbol><symbol id="site" viewBox="0 0 33 33"><g fill="none">
<path d="M17 4.41992C13.5522 4.41992 10.2456 5.73688 7.80761 8.08109C5.36964 10.4253 4 13.6047 4 16.9199C4 20.2351 5.36964 23.4146 7.80761 25.7588C10.2456 28.103 13.5522 29.4199 17 29.4199C20.4478 29.4199 23.7544 28.103 26.1924 25.7588C28.6304 23.4146 30 20.2351 30 16.9199C30 13.6047 28.6304 10.4253 26.1924 8.08109C23.7544 5.73688 20.4478 4.41992 17 4.41992ZM5.60333 17.8644H9.22889C9.28667 19.1283 9.47011 20.3838 9.77778 21.6144H6.65778C6.07596 20.435 5.71883 19.1649 5.60333 17.8644ZM17.9822 10.3644V6.0727C19.3742 6.58134 20.518 7.57218 21.1889 8.85048C21.485 9.33242 21.7464 9.83381 21.9689 10.3505L17.9822 10.3644ZM22.6333 12.2394C22.9684 13.4658 23.1678 14.7227 23.2256 15.9894H17.9822V12.2394H22.6333ZM16.0178 6.0727V10.3644H12.0311C12.2539 9.84728 12.5146 9.34602 12.8111 8.86437C13.4791 7.58083 14.6233 6.58473 16.0178 6.0727ZM16.0178 12.2394V15.9894H10.7889C10.8467 14.7227 11.046 13.4658 11.3811 12.2394H16.0178ZM9.22889 15.9755H5.60333C5.71883 14.6749 6.07596 13.4048 6.65778 12.2255H9.77778C9.46952 13.4555 9.2857 14.7114 9.22889 15.9755ZM10.7889 17.8644H16.0178V21.6144H11.3811C11.0461 20.3881 10.8475 19.131 10.7889 17.8644ZM16.0322 23.4199V27.7116C14.6402 27.2029 13.4964 26.2121 12.8256 24.9338C12.529 24.4522 12.2684 23.9509 12.0456 23.4338L16.0322 23.4199ZM17.9822 27.7116V23.4894H21.9689C21.7461 24.0065 21.4854 24.5077 21.1889 24.9894C20.518 26.2677 19.3742 27.2585 17.9822 27.7671V27.7116ZM17.9822 21.5449V17.7949H23.2111C23.1525 19.0616 22.9539 20.3186 22.6189 21.5449H17.9822ZM24.7856 17.7949H28.4111C28.2956 19.0955 27.9385 20.3656 27.3567 21.5449H24.2222C24.5256 20.3366 24.709 19.1046 24.7711 17.8644L24.7856 17.7949ZM24.7856 15.9199C24.7194 14.6787 24.5308 13.4463 24.2222 12.2394H27.3422C27.9243 13.4199 28.2811 14.6894 28.3967 15.9894L24.7856 15.9199ZM26.23 10.3644H23.6444C23.1766 9.10089 22.4985 7.91885 21.6367 6.86437C23.4341 7.64017 24.9954 8.84499 26.1722 10.3644H26.23ZM12.3633 6.86437C11.5015 7.91885 10.8234 9.10089 10.3556 10.3644H7.82778C9.0046 8.84499 10.5659 7.64017 12.3633 6.86437ZM7.81333 23.531H10.3556C10.8234 24.7945 11.5015 25.9766 12.3633 27.031C10.5609 26.2436 8.99915 25.024 7.82778 23.4894L7.81333 23.531ZM21.6222 27.031C22.4841 25.9766 23.1622 24.7945 23.63 23.531H26.1722C24.9882 25.0301 23.4275 26.2153 21.6367 26.9755L21.6222 27.031Z" fill="#951A1A"/>
</g></symbol></svg>