<svg width="38" height="93" viewBox="0 0 38 93" fill="none" xmlns="http://www.w3.org/2000/svg">
<path d="M1.92864 1.09132C0.824775 1.13063 -0.0382243 2.05736 0.00108251 3.16123L0.641605 21.1498C0.680912 22.2537 1.60764 23.1167 2.71151 23.0774C3.81538 23.0381 4.67838 22.1114 4.63907 21.0075L4.06972 5.01762L20.0596 4.44827C21.1635 4.40896 22.0265 3.48224 21.9871 2.37836C21.9478 1.2745 21.0211 0.411494 19.9172 0.450799L1.92864 1.09132ZM37.2294 92.0717C37.1443 82.141 35.3573 65.7988 30.2865 48.8444C25.2215 31.9093 16.8187 14.157 3.36281 1.62642L0.636821 4.5537C13.3634 16.4051 21.4918 33.3987 26.4542 49.9906C31.4109 66.5634 33.1475 82.5296 33.2296 92.106L37.2294 92.0717Z" fill="white"/>
</svg>
